<svg width="136" height="24" viewBox="0 0 136 24" fill="none" xmlns="http://www.w3.org/2000/svg">
<path d="M57.4268 11.9072C57.4268 13.0329 57.2171 13.974 56.7979 14.7305C56.3786 15.4824 55.7702 16.0498 54.9727 16.4326C54.1751 16.8109 53.2135 17 52.0879 17H49.3125V7.00586H52.3887C53.4232 7.00586 54.3164 7.19271 55.0684 7.56641C55.8203 7.93555 56.4014 8.4847 56.8115 9.21387C57.2217 9.93848 57.4268 10.8363 57.4268 11.9072ZM55.7178 11.9551C55.7178 11.1348 55.5879 10.4603 55.3281 9.93164C55.0729 9.40299 54.6947 9.01107 54.1934 8.75586C53.6966 8.49609 53.0837 8.36621 52.3545 8.36621H50.9531V15.626H52.1152C53.3229 15.626 54.2253 15.3184 54.8223 14.7031C55.4193 14.0879 55.7178 13.1719 55.7178 11.9551ZM61.0225 9.43262V17H59.416V9.43262H61.0225ZM60.2295 6.53418C60.4756 6.53418 60.6875 6.60026 60.8652 6.73242C61.0475 6.86458 61.1387 7.09245 61.1387 7.41602C61.1387 7.73503 61.0475 7.96289 60.8652 8.09961C60.6875 8.23177 60.4756 8.29785 60.2295 8.29785C59.9743 8.29785 59.7578 8.23177 59.5801 8.09961C59.4069 7.96289 59.3203 7.73503 59.3203 7.41602C59.3203 7.09245 59.4069 6.86458 59.5801 6.73242C59.7578 6.60026 59.9743 6.53418 60.2295 6.53418ZM65.4863 20.3633C64.4609 20.3633 63.6748 20.1787 63.1279 19.8096C62.5811 19.4404 62.3076 18.9232 62.3076 18.2578C62.3076 17.793 62.4535 17.3988 62.7451 17.0752C63.0368 16.7562 63.4538 16.5352 63.9961 16.4121C63.791 16.321 63.6133 16.1797 63.4629 15.9883C63.3171 15.7923 63.2441 15.5758 63.2441 15.3389C63.2441 15.0563 63.3239 14.8148 63.4834 14.6143C63.6429 14.4137 63.8822 14.2201 64.2012 14.0332C63.8047 13.8646 63.4857 13.5911 63.2441 13.2129C63.0072 12.8301 62.8887 12.3812 62.8887 11.8662C62.8887 11.3193 63.0049 10.8545 63.2373 10.4717C63.4697 10.0843 63.8092 9.79036 64.2559 9.58984C64.7025 9.38477 65.2425 9.28223 65.876 9.28223C66.0127 9.28223 66.1608 9.29134 66.3203 9.30957C66.4844 9.32324 66.6348 9.34147 66.7715 9.36426C66.9128 9.38249 67.0199 9.40299 67.0928 9.42578H69.7109V10.3213L68.4258 10.5605C68.5488 10.7337 68.6468 10.932 68.7197 11.1553C68.7926 11.374 68.8291 11.6133 68.8291 11.873C68.8291 12.6569 68.5579 13.2744 68.0156 13.7256C67.4779 14.1722 66.735 14.3955 65.7871 14.3955C65.5592 14.3864 65.3382 14.3682 65.124 14.3408C64.96 14.4411 64.8346 14.5527 64.748 14.6758C64.6615 14.7943 64.6182 14.9287 64.6182 15.0791C64.6182 15.2021 64.6615 15.3024 64.748 15.3799C64.8346 15.4528 64.9622 15.5075 65.1309 15.5439C65.304 15.5804 65.5137 15.5986 65.7598 15.5986H67.0654C67.8949 15.5986 68.5283 15.7741 68.9658 16.125C69.4033 16.4759 69.6221 16.9909 69.6221 17.6699C69.6221 18.5312 69.2666 19.1943 68.5557 19.6592C67.8447 20.1286 66.8216 20.3633 65.4863 20.3633ZM65.5479 19.2354C66.1084 19.2354 66.5801 19.1807 66.9629 19.0713C67.3457 18.9619 67.6351 18.8047 67.8311 18.5996C68.027 18.3991 68.125 18.1598 68.125 17.8818C68.125 17.6357 68.0635 17.4466 67.9404 17.3145C67.8174 17.1823 67.6328 17.0911 67.3867 17.041C67.1406 16.9909 66.8353 16.9658 66.4707 16.9658H65.2812C64.985 16.9658 64.723 17.0114 64.4951 17.1025C64.2673 17.1982 64.0895 17.335 63.9619 17.5127C63.8389 17.6904 63.7773 17.9046 63.7773 18.1553C63.7773 18.5016 63.93 18.7682 64.2354 18.9551C64.5452 19.1419 64.9827 19.2354 65.5479 19.2354ZM65.8623 13.3428C66.3317 13.3428 66.6803 13.2152 66.9082 12.96C67.1361 12.7002 67.25 12.3356 67.25 11.8662C67.25 11.3558 67.1315 10.973 66.8945 10.7178C66.6621 10.4626 66.3158 10.335 65.8555 10.335C65.4043 10.335 65.0602 10.4648 64.8232 10.7246C64.5908 10.9844 64.4746 11.3695 64.4746 11.8799C64.4746 12.3402 64.5908 12.7002 64.8232 12.96C65.0602 13.2152 65.4066 13.3428 65.8623 13.3428ZM72.6982 9.43262V17H71.0918V9.43262H72.6982ZM71.9053 6.53418C72.1514 6.53418 72.3633 6.60026 72.541 6.73242C72.7233 6.86458 72.8145 7.09245 72.8145 7.41602C72.8145 7.73503 72.7233 7.96289 72.541 8.09961C72.3633 8.23177 72.1514 8.29785 71.9053 8.29785C71.6501 8.29785 71.4336 8.23177 71.2559 8.09961C71.0827 7.96289 70.9961 7.73503 70.9961 7.41602C70.9961 7.09245 71.0827 6.86458 71.2559 6.73242C71.4336 6.60026 71.6501 6.53418 71.9053 6.53418ZM77.8184 15.8379C78.028 15.8379 78.2354 15.8197 78.4404 15.7832C78.6455 15.7422 78.8324 15.6943 79.001 15.6396V16.8564C78.8232 16.9339 78.5931 17 78.3105 17.0547C78.028 17.1094 77.734 17.1367 77.4287 17.1367C77.0003 17.1367 76.6152 17.0661 76.2734 16.9248C75.9316 16.779 75.6605 16.5306 75.46 16.1797C75.2594 15.8288 75.1592 15.3434 75.1592 14.7236V10.6562H74.127V9.93848L75.2344 9.37109L75.7607 7.75098H76.7725V9.43262H78.9395V10.6562H76.7725V14.7031C76.7725 15.0859 76.8682 15.3708 77.0596 15.5576C77.251 15.7445 77.5039 15.8379 77.8184 15.8379ZM83.5059 9.28906C84.4629 9.28906 85.1852 9.50098 85.6729 9.9248C86.165 10.3486 86.4111 11.0094 86.4111 11.9072V17H85.2695L84.9619 15.9268H84.9072C84.693 16.2002 84.472 16.4258 84.2441 16.6035C84.0163 16.7812 83.752 16.9134 83.4512 17C83.1549 17.0911 82.7926 17.1367 82.3643 17.1367C81.9131 17.1367 81.5098 17.0547 81.1543 16.8906C80.7988 16.722 80.5186 16.4668 80.3135 16.125C80.1084 15.7832 80.0059 15.3503 80.0059 14.8262C80.0059 14.0469 80.2952 13.4613 80.874 13.0693C81.4574 12.6774 82.3369 12.4609 83.5127 12.4199L84.8252 12.3721V11.9756C84.8252 11.4515 84.7021 11.0778 84.4561 10.8545C84.2145 10.6312 83.8727 10.5195 83.4307 10.5195C83.0524 10.5195 82.6855 10.5742 82.3301 10.6836C81.9746 10.793 81.6283 10.9274 81.291 11.0869L80.7715 9.95215C81.1406 9.75618 81.5599 9.59668 82.0293 9.47363C82.5033 9.35059 82.9954 9.28906 83.5059 9.28906ZM84.8184 13.3838L83.8408 13.418C83.0387 13.4453 82.4759 13.582 82.1523 13.8281C81.8288 14.0742 81.667 14.4115 81.667 14.8398C81.667 15.2135 81.7786 15.487 82.002 15.6602C82.2253 15.8288 82.5192 15.9131 82.8838 15.9131C83.4398 15.9131 83.9001 15.7559 84.2646 15.4414C84.6338 15.1224 84.8184 14.6553 84.8184 14.04V13.3838ZM90.2734 17H88.6602V6.36328H90.2734V17ZM105.244 11.9893C105.244 12.7594 105.146 13.4613 104.95 14.0947C104.759 14.7236 104.469 15.266 104.082 15.7217C103.695 16.1729 103.209 16.5215 102.626 16.7676C102.043 17.0137 101.359 17.1367 100.575 17.1367C99.7777 17.1367 99.085 17.0137 98.4971 16.7676C97.9137 16.5215 97.4284 16.1706 97.041 15.7148C96.6582 15.2591 96.3711 14.7145 96.1797 14.0811C95.9883 13.4476 95.8926 12.7458 95.8926 11.9756C95.8926 10.9456 96.0612 10.0479 96.3984 9.28223C96.7402 8.51204 97.2575 7.91504 97.9502 7.49121C98.6475 7.06283 99.527 6.84863 100.589 6.84863C101.628 6.84863 102.492 7.06055 103.18 7.48438C103.868 7.9082 104.383 8.50521 104.725 9.27539C105.071 10.041 105.244 10.9456 105.244 11.9893ZM97.6152 11.9893C97.6152 12.7594 97.7201 13.4271 97.9297 13.9922C98.1393 14.5527 98.4606 14.9857 98.8936 15.291C99.3311 15.5918 99.8916 15.7422 100.575 15.7422C101.263 15.7422 101.824 15.5918 102.257 15.291C102.69 14.9857 103.009 14.5527 103.214 13.9922C103.419 13.4271 103.521 12.7594 103.521 11.9893C103.521 10.818 103.287 9.90202 102.817 9.24121C102.353 8.57585 101.61 8.24316 100.589 8.24316C99.9053 8.24316 99.3424 8.39355 98.9004 8.69434C98.4629 8.99512 98.1393 9.42578 97.9297 9.98633C97.7201 10.5423 97.6152 11.21 97.6152 11.9893ZM111.007 10.6562H109.168V17H107.562V10.6562H106.324V9.88379L107.562 9.41211V8.88574C107.562 8.24316 107.662 7.73275 107.862 7.35449C108.067 6.97624 108.359 6.70508 108.737 6.54102C109.12 6.3724 109.576 6.28809 110.104 6.28809C110.451 6.28809 110.768 6.31771 111.055 6.37695C111.342 6.43164 111.583 6.49544 111.779 6.56836L111.362 7.78516C111.207 7.73503 111.034 7.68945 110.843 7.64844C110.651 7.60286 110.446 7.58008 110.228 7.58008C109.863 7.58008 109.594 7.69401 109.421 7.92188C109.252 8.14974 109.168 8.48242 109.168 8.91992V9.43262H111.007V10.6562ZM116.072 10.6562H114.233V17H112.627V10.6562H111.39V9.88379L112.627 9.41211V8.88574C112.627 8.24316 112.727 7.73275 112.928 7.35449C113.133 6.97624 113.424 6.70508 113.803 6.54102C114.186 6.3724 114.641 6.28809 115.17 6.28809C115.516 6.28809 115.833 6.31771 116.12 6.37695C116.407 6.43164 116.649 6.49544 116.845 6.56836L116.428 7.78516C116.273 7.73503 116.1 7.68945 115.908 7.64844C115.717 7.60286 115.512 7.58008 115.293 7.58008C114.928 7.58008 114.66 7.69401 114.486 7.92188C114.318 8.14974 114.233 8.48242 114.233 8.91992V9.43262H116.072V10.6562ZM118.964 9.43262V17H117.357V9.43262H118.964ZM118.171 6.53418C118.417 6.53418 118.629 6.60026 118.807 6.73242C118.989 6.86458 119.08 7.09245 119.08 7.41602C119.08 7.73503 118.989 7.96289 118.807 8.09961C118.629 8.23177 118.417 8.29785 118.171 8.29785C117.916 8.29785 117.699 8.23177 117.521 8.09961C117.348 7.96289 117.262 7.73503 117.262 7.41602C117.262 7.09245 117.348 6.86458 117.521 6.73242C117.699 6.60026 117.916 6.53418 118.171 6.53418ZM124.303 17.1367C123.587 17.1367 122.967 16.9977 122.443 16.7197C121.919 16.4417 121.516 16.0156 121.233 15.4414C120.951 14.8672 120.81 14.138 120.81 13.2539C120.81 12.3333 120.965 11.5814 121.274 10.998C121.584 10.4147 122.013 9.98405 122.56 9.70605C123.111 9.42806 123.742 9.28906 124.453 9.28906C124.904 9.28906 125.312 9.33464 125.677 9.42578C126.046 9.51237 126.358 9.61947 126.613 9.74707L126.135 11.0322C125.857 10.9183 125.572 10.8226 125.28 10.7451C124.989 10.6676 124.708 10.6289 124.439 10.6289C123.997 10.6289 123.628 10.7269 123.332 10.9229C123.04 11.1188 122.822 11.4105 122.676 11.7979C122.535 12.1852 122.464 12.666 122.464 13.2402C122.464 13.7962 122.537 14.2656 122.683 14.6484C122.828 15.0267 123.045 15.3138 123.332 15.5098C123.619 15.7012 123.972 15.7969 124.392 15.7969C124.806 15.7969 125.178 15.7467 125.506 15.6465C125.834 15.5462 126.144 15.4163 126.436 15.2568V16.6514C126.148 16.8154 125.841 16.9362 125.513 17.0137C125.185 17.0957 124.781 17.1367 124.303 17.1367ZM131.228 9.28906C131.902 9.28906 132.481 9.42806 132.964 9.70605C133.447 9.98405 133.818 10.3783 134.078 10.8887C134.338 11.3991 134.468 12.0098 134.468 12.7207V13.582H129.416C129.434 14.3158 129.63 14.8809 130.004 15.2773C130.382 15.6738 130.911 15.8721 131.59 15.8721C132.073 15.8721 132.506 15.8265 132.889 15.7354C133.276 15.6396 133.675 15.5007 134.085 15.3184V16.624C133.707 16.8018 133.322 16.9316 132.93 17.0137C132.538 17.0957 132.068 17.1367 131.521 17.1367C130.779 17.1367 130.125 16.9932 129.56 16.7061C128.999 16.4144 128.559 15.9814 128.24 15.4072C127.926 14.833 127.769 14.1198 127.769 13.2676C127.769 12.4199 127.912 11.6999 128.199 11.1074C128.486 10.515 128.89 10.0638 129.409 9.75391C129.929 9.44401 130.535 9.28906 131.228 9.28906ZM131.228 10.499C130.722 10.499 130.312 10.6631 129.997 10.9912C129.687 11.3193 129.505 11.8001 129.45 12.4336H132.896C132.891 12.0553 132.827 11.7204 132.704 11.4287C132.586 11.137 132.403 10.9092 132.157 10.7451C131.916 10.5811 131.606 10.499 131.228 10.499Z" fill="white"/>
<circle opacity="0.5" cx="24" cy="12" r="12" fill="white"/>
<path d="M0 0H12C18.6274 0 24 5.37258 24 12C24 18.6274 18.6274 24 12 24H0V0Z" fill="white"/>
</svg>
